<svg width="419" height="372" viewBox="0 0 419 372" fill="none" xmlns="http://www.w3.org/2000/svg">
    <g opacity="0.5">
        <path d="M314 140C314 126.211 311.284 112.557 306.007 99.8182C300.731 87.0791 292.996 75.5039 283.246 65.7538C273.496 56.0036 261.921 48.2694 249.182 42.9927C236.443 37.7159 222.789 35 209 35C195.211 35 181.557 37.7159 168.818 42.9927C156.079 48.2694 144.504 56.0036 134.754 65.7538C125.004 75.5039 117.269 87.0791 111.993 99.8182C106.716 112.557 104 126.211 104 140C104 167.848 115.062 194.555 134.754 214.246C154.445 233.938 181.152 245 209 245C236.848 245 263.555 233.938 283.246 214.246C302.938 194.555 314 167.848 314 140ZM121.5 140C121.5 116.794 130.719 94.5376 147.128 78.1282C163.538 61.7187 185.794 52.5 209 52.5C232.206 52.5 254.462 61.7187 270.872 78.1282C287.281 94.5376 296.5 116.794 296.5 140C296.5 163.206 287.281 185.462 270.872 201.872C254.462 218.281 232.206 227.5 209 227.5C185.794 227.5 163.538 218.281 147.128 201.872C130.719 185.462 121.5 163.206 121.5 140ZM191.5 118.125C191.5 119.849 191.161 121.555 190.501 123.148C189.841 124.74 188.875 126.187 187.656 127.406C186.437 128.625 184.99 129.591 183.398 130.251C181.805 130.911 180.099 131.25 178.375 131.25C176.651 131.25 174.945 130.911 173.352 130.251C171.76 129.591 170.313 128.625 169.094 127.406C167.875 126.187 166.909 124.74 166.249 123.148C165.589 121.555 165.25 119.849 165.25 118.125C165.25 114.644 166.633 111.306 169.094 108.844C171.556 106.383 174.894 105 178.375 105C181.856 105 185.194 106.383 187.656 108.844C190.117 111.306 191.5 114.644 191.5 118.125ZM252.75 118.125C252.75 121.606 251.367 124.944 248.906 127.406C246.444 129.867 243.106 131.25 239.625 131.25C236.144 131.25 232.806 129.867 230.344 127.406C227.883 124.944 226.5 121.606 226.5 118.125C226.5 114.644 227.883 111.306 230.344 108.844C232.806 106.383 236.144 105 239.625 105C243.106 105 246.444 106.383 248.906 108.844C251.367 111.306 252.75 114.644 252.75 118.125ZM176.31 189.385C192.497 170.205 225.485 170.205 241.69 189.385C242.413 190.315 243.317 191.09 244.346 191.662C245.376 192.235 246.511 192.594 247.683 192.717C248.855 192.84 250.039 192.726 251.165 192.38C252.292 192.034 253.337 191.465 254.238 190.705C255.139 189.946 255.877 189.012 256.408 187.961C256.939 186.909 257.253 185.761 257.33 184.585C257.406 183.409 257.245 182.23 256.855 181.118C256.465 180.007 255.854 178.985 255.06 178.115C231.872 150.64 186.11 150.64 162.94 178.115C162.146 178.985 161.535 180.007 161.145 181.118C160.755 182.23 160.594 183.409 160.67 184.585C160.747 185.761 161.061 186.909 161.592 187.961C162.123 189.012 162.861 189.946 163.762 190.705C164.663 191.465 165.708 192.034 166.834 192.38C167.961 192.726 169.145 192.84 170.317 192.717C171.489 192.594 172.624 192.235 173.654 191.662C174.683 191.09 175.587 190.315 176.31 189.385Z" fill="#0CE3CB"/>
    </g>
    <path d="M52.0711 314H46.6351V302.912H36.4471V314H31.0111V288.296H36.4471V298.376H46.6351V288.296H52.0711V314ZM62.9904 302.12C62.9904 302.528 62.9664 303.032 62.9184 303.632C62.8944 304.232 62.8584 304.844 62.8104 305.468C62.7864 306.092 62.7504 306.644 62.7024 307.124C62.6544 307.604 62.6184 307.94 62.5944 308.132L71.6664 294.344H78.1104V314H72.9264V306.152C72.9264 305.504 72.9504 304.796 72.9984 304.028C73.0464 303.236 73.0944 302.504 73.1424 301.832C73.2144 301.136 73.2624 300.608 73.2864 300.248L64.2504 314H57.8064V294.344H62.9904V302.12ZM88.1326 301.544C88.1326 302.384 88.3366 303.02 88.7446 303.452C89.1766 303.884 89.7646 304.1 90.5086 304.1C91.5406 304.1 92.5006 303.992 93.3886 303.776C94.2766 303.536 95.1646 303.224 96.0526 302.84V294.344H101.417V314H96.0526V306.188C95.2126 306.644 94.2526 307.064 93.1726 307.448C92.0926 307.808 90.8686 307.988 89.5006 307.988C87.4606 307.988 85.8286 307.46 84.6046 306.404C83.3806 305.348 82.7686 303.764 82.7686 301.652V294.344H88.1326V301.544ZM114.842 293.984C116.666 293.984 118.226 294.332 119.522 295.028C120.842 295.724 121.862 296.732 122.582 298.052C123.302 299.372 123.662 300.992 123.662 302.912V305.504H110.99C111.038 307.016 111.482 308.204 112.322 309.068C113.186 309.932 114.374 310.364 115.886 310.364C117.158 310.364 118.31 310.244 119.342 310.004C120.374 309.74 121.442 309.344 122.546 308.816V312.956C121.586 313.436 120.566 313.784 119.486 314C118.43 314.24 117.146 314.36 115.634 314.36C113.666 314.36 111.926 314 110.414 313.28C108.902 312.536 107.714 311.42 106.85 309.932C105.986 308.444 105.554 306.572 105.554 304.316C105.554 302.012 105.938 300.104 106.706 298.592C107.498 297.056 108.59 295.904 109.982 295.136C111.374 294.368 112.994 293.984 114.842 293.984ZM114.878 297.8C113.846 297.8 112.982 298.136 112.286 298.808C111.614 299.48 111.218 300.524 111.098 301.94H118.622C118.622 301.148 118.478 300.44 118.19 299.816C117.926 299.192 117.518 298.7 116.966 298.34C116.414 297.98 115.718 297.8 114.878 297.8ZM141.283 294.344V298.376H133.075V314H127.711V294.344H141.283ZM162.107 304.136C162.107 305.768 161.879 307.22 161.423 308.492C160.991 309.764 160.355 310.844 159.515 311.732C158.699 312.596 157.703 313.256 156.527 313.712C155.351 314.144 154.019 314.36 152.531 314.36C151.163 314.36 149.891 314.144 148.715 313.712C147.563 313.256 146.567 312.596 145.727 311.732C144.887 310.844 144.227 309.764 143.747 308.492C143.291 307.22 143.063 305.768 143.063 304.136C143.063 301.952 143.447 300.116 144.215 298.628C144.983 297.116 146.087 295.964 147.527 295.172C148.967 294.38 150.671 293.984 152.639 293.984C154.487 293.984 156.119 294.38 157.535 295.172C158.951 295.964 160.067 297.116 160.883 298.628C161.699 300.116 162.107 301.952 162.107 304.136ZM148.535 304.136C148.535 305.432 148.667 306.524 148.931 307.412C149.219 308.276 149.663 308.936 150.263 309.392C150.863 309.824 151.643 310.04 152.603 310.04C153.563 310.04 154.331 309.824 154.907 309.392C155.507 308.936 155.939 308.276 156.203 307.412C156.491 306.524 156.635 305.432 156.635 304.136C156.635 302.84 156.491 301.76 156.203 300.896C155.939 300.032 155.507 299.384 154.907 298.952C154.307 298.52 153.527 298.304 152.567 298.304C151.151 298.304 150.119 298.796 149.471 299.78C148.847 300.74 148.535 302.192 148.535 304.136ZM179.882 294.344V301.904H187.37V294.344H192.734V314H187.37V305.9H179.882V314H174.518V294.344H179.882ZM206.154 293.984C207.978 293.984 209.538 294.332 210.834 295.028C212.154 295.724 213.174 296.732 213.894 298.052C214.614 299.372 214.974 300.992 214.974 302.912V305.504H202.302C202.35 307.016 202.794 308.204 203.634 309.068C204.498 309.932 205.686 310.364 207.198 310.364C208.47 310.364 209.622 310.244 210.654 310.004C211.686 309.74 212.754 309.344 213.858 308.816V312.956C212.898 313.436 211.878 313.784 210.798 314C209.742 314.24 208.458 314.36 206.946 314.36C204.978 314.36 203.238 314 201.726 313.28C200.214 312.536 199.026 311.42 198.162 309.932C197.298 308.444 196.866 306.572 196.866 304.316C196.866 302.012 197.25 300.104 198.018 298.592C198.81 297.056 199.902 295.904 201.294 295.136C202.686 294.368 204.306 293.984 206.154 293.984ZM206.19 297.8C205.158 297.8 204.294 298.136 203.598 298.808C202.926 299.48 202.53 300.524 202.41 301.94H209.934C209.934 301.148 209.79 300.44 209.502 299.816C209.238 299.192 208.83 298.7 208.278 298.34C207.726 297.98 207.03 297.8 206.19 297.8ZM232.666 294.344V301.904H240.154V294.344H245.518V314H240.154V305.9H232.666V314H227.302V294.344H232.666ZM258.902 293.948C261.542 293.948 263.558 294.524 264.95 295.676C266.366 296.804 267.074 298.544 267.074 300.896V314H263.33L262.286 311.336H262.142C261.59 312.032 261.014 312.608 260.414 313.064C259.838 313.52 259.166 313.844 258.398 314.036C257.654 314.252 256.73 314.36 255.626 314.36C254.474 314.36 253.43 314.144 252.494 313.712C251.582 313.256 250.862 312.572 250.334 311.66C249.806 310.724 249.542 309.548 249.542 308.132C249.542 306.044 250.274 304.508 251.738 303.524C253.202 302.516 255.398 301.964 258.326 301.868L261.746 301.76V300.896C261.746 299.864 261.47 299.108 260.918 298.628C260.39 298.148 259.646 297.908 258.686 297.908C257.726 297.908 256.79 298.052 255.878 298.34C254.966 298.604 254.054 298.94 253.142 299.348L251.378 295.712C252.434 295.16 253.598 294.728 254.87 294.416C256.166 294.104 257.51 293.948 258.902 293.948ZM259.658 304.964C257.93 305.012 256.73 305.324 256.058 305.9C255.386 306.476 255.05 307.232 255.05 308.168C255.05 308.984 255.29 309.572 255.77 309.932C256.25 310.268 256.874 310.436 257.642 310.436C258.794 310.436 259.766 310.1 260.558 309.428C261.35 308.732 261.746 307.76 261.746 306.512V304.892L259.658 304.964ZM301.532 294.344V314H272.264V294.344H277.628V309.968H284.216V294.344H289.58V309.968H296.168V294.344H301.532ZM324.443 314H319.079V298.376H314.147C313.907 301.256 313.607 303.716 313.247 305.756C312.911 307.772 312.479 309.416 311.951 310.688C311.447 311.96 310.799 312.896 310.007 313.496C309.215 314.072 308.243 314.36 307.091 314.36C306.467 314.36 305.903 314.312 305.399 314.216C304.895 314.12 304.439 313.976 304.031 313.784V309.5C304.295 309.596 304.571 309.68 304.859 309.752C305.147 309.824 305.447 309.86 305.759 309.86C306.095 309.86 306.407 309.728 306.695 309.464C307.007 309.2 307.295 308.732 307.559 308.06C307.847 307.388 308.111 306.464 308.351 305.288C308.591 304.112 308.807 302.636 308.999 300.86C309.215 299.06 309.407 296.888 309.575 294.344H324.443V314ZM347.598 304.136C347.598 305.768 347.37 307.22 346.914 308.492C346.482 309.764 345.846 310.844 345.006 311.732C344.19 312.596 343.194 313.256 342.018 313.712C340.842 314.144 339.51 314.36 338.022 314.36C336.654 314.36 335.382 314.144 334.206 313.712C333.054 313.256 332.058 312.596 331.218 311.732C330.378 310.844 329.718 309.764 329.238 308.492C328.782 307.22 328.554 305.768 328.554 304.136C328.554 301.952 328.938 300.116 329.706 298.628C330.474 297.116 331.578 295.964 333.018 295.172C334.458 294.38 336.162 293.984 338.13 293.984C339.978 293.984 341.61 294.38 343.026 295.172C344.442 295.964 345.558 297.116 346.374 298.628C347.19 300.116 347.598 301.952 347.598 304.136ZM334.026 304.136C334.026 305.432 334.158 306.524 334.422 307.412C334.71 308.276 335.154 308.936 335.754 309.392C336.354 309.824 337.134 310.04 338.094 310.04C339.054 310.04 339.822 309.824 340.398 309.392C340.998 308.936 341.43 308.276 341.694 307.412C341.982 306.524 342.126 305.432 342.126 304.136C342.126 302.84 341.982 301.76 341.694 300.896C341.43 300.032 340.998 299.384 340.398 298.952C339.798 298.52 339.018 298.304 338.058 298.304C336.642 298.304 335.61 298.796 334.962 299.78C334.338 300.74 334.026 302.192 334.026 304.136ZM359.723 314.36C357.779 314.36 356.123 314.012 354.755 313.316C353.387 312.596 352.343 311.492 351.623 310.004C350.903 308.516 350.543 306.608 350.543 304.28C350.543 301.88 350.951 299.924 351.767 298.412C352.583 296.9 353.711 295.784 355.151 295.064C356.615 294.344 358.295 293.984 360.191 293.984C361.535 293.984 362.699 294.116 363.683 294.38C364.691 294.644 365.567 294.956 366.311 295.316L364.727 299.456C363.887 299.12 363.095 298.844 362.351 298.628C361.631 298.412 360.911 298.304 360.191 298.304C359.255 298.304 358.475 298.532 357.851 298.988C357.227 299.42 356.759 300.08 356.447 300.968C356.159 301.832 356.015 302.924 356.015 304.244C356.015 305.54 356.171 306.62 356.483 307.484C356.819 308.324 357.299 308.96 357.923 309.392C358.547 309.8 359.303 310.004 360.191 310.004C361.319 310.004 362.315 309.86 363.179 309.572C364.043 309.26 364.883 308.84 365.699 308.312V312.884C364.883 313.412 364.019 313.784 363.107 314C362.219 314.24 361.091 314.36 359.723 314.36ZM379.068 301.94C381.084 301.94 382.752 302.156 384.072 302.588C385.392 302.996 386.364 303.632 386.988 304.496C387.636 305.36 387.96 306.44 387.96 307.736C387.96 309.008 387.66 310.112 387.06 311.048C386.484 311.984 385.56 312.716 384.288 313.244C383.016 313.748 381.348 314 379.284 314H369.924V294.344H375.288V301.94H379.068ZM382.596 307.808C382.596 307.04 382.284 306.488 381.66 306.152C381.06 305.816 380.16 305.648 378.96 305.648H375.288V310.292H379.032C380.088 310.292 380.94 310.1 381.588 309.716C382.26 309.332 382.596 308.696 382.596 307.808Z" fill="#6B6B6B"/>
    <path d="M0.286375 347V335.576H8.86238V347H7.43838V336.84H1.72638V347H0.286375ZM18.9535 342.696C18.9535 343.411 18.8575 344.045 18.6655 344.6C18.4842 345.144 18.2175 345.608 17.8655 345.992C17.5242 346.376 17.1028 346.669 16.6015 346.872C16.1108 347.064 15.5615 347.16 14.9535 347.16C14.3882 347.16 13.8655 347.064 13.3855 346.872C12.9055 346.669 12.4895 346.376 12.1375 345.992C11.7855 345.608 11.5082 345.144 11.3055 344.6C11.1135 344.045 11.0175 343.411 11.0175 342.696C11.0175 341.747 11.1775 340.947 11.4975 340.296C11.8175 339.635 12.2762 339.133 12.8735 338.792C13.4708 338.44 14.1802 338.264 15.0015 338.264C15.7802 338.264 16.4628 338.44 17.0495 338.792C17.6468 339.133 18.1108 339.635 18.4415 340.296C18.7828 340.947 18.9535 341.747 18.9535 342.696ZM12.4735 342.696C12.4735 343.368 12.5588 343.955 12.7295 344.456C12.9108 344.947 13.1882 345.325 13.5615 345.592C13.9348 345.859 14.4095 345.992 14.9855 345.992C15.5615 345.992 16.0362 345.859 16.4095 345.592C16.7828 345.325 17.0548 344.947 17.2255 344.456C17.4068 343.955 17.4975 343.368 17.4975 342.696C17.4975 342.013 17.4068 341.432 17.2255 340.952C17.0442 340.472 16.7668 340.104 16.3935 339.848C16.0308 339.581 15.5562 339.448 14.9695 339.448C14.0948 339.448 13.4602 339.736 13.0655 340.312C12.6708 340.888 12.4735 341.683 12.4735 342.696ZM28.133 338.424V347H26.725V339.624H22.293V347H20.885V338.424H28.133ZM34.6494 338.264C35.7054 338.264 36.5534 338.632 37.1934 339.368C37.844 340.104 38.1694 341.213 38.1694 342.696C38.1694 343.667 38.02 344.488 37.7214 345.16C37.4334 345.821 37.0227 346.323 36.4894 346.664C35.9667 346.995 35.348 347.16 34.6334 347.16C34.196 347.16 33.8067 347.101 33.4654 346.984C33.124 346.867 32.8307 346.717 32.5854 346.536C32.3507 346.344 32.148 346.136 31.9774 345.912H31.8814C31.9027 346.093 31.924 346.323 31.9454 346.6C31.9667 346.877 31.9774 347.117 31.9774 347.32V350.84H30.5694V338.424H31.7214L31.9134 339.592H31.9774C32.148 339.347 32.3507 339.123 32.5854 338.92C32.8307 338.717 33.1187 338.557 33.4494 338.44C33.7907 338.323 34.1907 338.264 34.6494 338.264ZM34.3934 339.448C33.8174 339.448 33.3534 339.56 33.0014 339.784C32.6494 339.997 32.3934 340.323 32.2334 340.76C32.0734 341.197 31.988 341.752 31.9774 342.424V342.696C31.9774 343.4 32.052 343.997 32.2014 344.488C32.3507 344.979 32.6014 345.352 32.9534 345.608C33.316 345.864 33.8067 345.992 34.4254 345.992C34.948 345.992 35.3747 345.848 35.7054 345.56C36.0467 345.272 36.2974 344.883 36.4574 344.392C36.628 343.891 36.7134 343.32 36.7134 342.68C36.7134 341.699 36.5214 340.915 36.1374 340.328C35.764 339.741 35.1827 339.448 34.3934 339.448ZM47.5691 342.696C47.5691 343.411 47.4731 344.045 47.2811 344.6C47.0998 345.144 46.8331 345.608 46.4811 345.992C46.1398 346.376 45.7185 346.669 45.2171 346.872C44.7265 347.064 44.1771 347.16 43.5691 347.16C43.0038 347.16 42.4811 347.064 42.0011 346.872C41.5211 346.669 41.1051 346.376 40.7531 345.992C40.4011 345.608 40.1238 345.144 39.9211 344.6C39.7291 344.045 39.6331 343.411 39.6331 342.696C39.6331 341.747 39.7931 340.947 40.1131 340.296C40.4331 339.635 40.8918 339.133 41.4891 338.792C42.0865 338.44 42.7958 338.264 43.6171 338.264C44.3958 338.264 45.0785 338.44 45.6651 338.792C46.2625 339.133 46.7265 339.635 47.0571 340.296C47.3985 340.947 47.5691 341.747 47.5691 342.696ZM41.0891 342.696C41.0891 343.368 41.1745 343.955 41.3451 344.456C41.5265 344.947 41.8038 345.325 42.1771 345.592C42.5505 345.859 43.0251 345.992 43.6011 345.992C44.1771 345.992 44.6518 345.859 45.0251 345.592C45.3985 345.325 45.6705 344.947 45.8411 344.456C46.0225 343.955 46.1131 343.368 46.1131 342.696C46.1131 342.013 46.0225 341.432 45.8411 340.952C45.6598 340.472 45.3825 340.104 45.0091 339.848C44.6465 339.581 44.1718 339.448 43.5851 339.448C42.7105 339.448 42.0758 339.736 41.6811 340.312C41.2865 340.888 41.0891 341.683 41.0891 342.696ZM49.0526 341.848C49.0526 340.6 49.1753 339.539 49.4206 338.664C49.6766 337.779 50.066 337.075 50.5886 336.552C51.122 336.019 51.8046 335.661 52.6366 335.48C53.33 335.331 54.0073 335.197 54.6686 335.08C55.33 334.963 55.9486 334.856 56.5246 334.76L56.7646 335.992C56.4873 336.035 56.178 336.088 55.8366 336.152C55.4953 336.205 55.1486 336.264 54.7966 336.328C54.4446 336.381 54.1033 336.44 53.7726 336.504C53.4526 336.557 53.17 336.611 52.9246 336.664C52.5726 336.739 52.258 336.867 51.9806 337.048C51.7033 337.219 51.4633 337.453 51.2606 337.752C51.0686 338.051 50.914 338.419 50.7966 338.856C50.6793 339.293 50.61 339.811 50.5886 340.408H50.6846C50.834 340.205 51.0366 339.997 51.2926 339.784C51.5593 339.571 51.874 339.389 52.2366 339.24C52.61 339.091 53.0313 339.016 53.5006 339.016C54.2473 339.016 54.866 339.181 55.3566 339.512C55.858 339.832 56.2313 340.28 56.4766 340.856C56.7326 341.432 56.8606 342.104 56.8606 342.872C56.8606 343.821 56.6953 344.616 56.3646 345.256C56.034 345.896 55.5753 346.376 54.9886 346.696C54.402 347.005 53.7193 347.16 52.9406 347.16C52.354 347.16 51.8206 347.048 51.3406 346.824C50.8606 346.589 50.45 346.248 50.1086 345.8C49.7673 345.352 49.506 344.797 49.3246 344.136C49.1433 343.475 49.0526 342.712 49.0526 341.848ZM53.0526 345.992C53.522 345.992 53.9273 345.896 54.2686 345.704C54.6206 345.512 54.8926 345.197 55.0846 344.76C55.2766 344.323 55.3726 343.741 55.3726 343.016C55.3726 342.141 55.2073 341.453 54.8766 340.952C54.5566 340.44 54.0233 340.184 53.2766 340.184C52.8073 340.184 52.3806 340.291 51.9966 340.504C51.6126 340.707 51.2926 340.941 51.0366 341.208C50.7806 341.475 50.5993 341.699 50.4926 341.88C50.4926 342.403 50.53 342.909 50.6046 343.4C50.6793 343.891 50.8073 344.333 50.9886 344.728C51.1806 345.112 51.442 345.421 51.7726 345.656C52.114 345.88 52.5406 345.992 53.0526 345.992ZM57.4347 338.424H58.9387L60.7947 343.304C60.9014 343.592 60.9974 343.869 61.0827 344.136C61.1787 344.403 61.2641 344.664 61.3387 344.92C61.4134 345.165 61.4721 345.405 61.5147 345.64H61.5787C61.6427 345.373 61.7441 345.027 61.8827 344.6C62.0214 344.163 62.1654 343.725 62.3147 343.288L64.0587 338.424H65.5787L61.8827 348.184C61.6801 348.717 61.4401 349.181 61.1627 349.576C60.8961 349.981 60.5654 350.291 60.1707 350.504C59.7867 350.728 59.3174 350.84 58.7627 350.84C58.5067 350.84 58.2827 350.824 58.0907 350.792C57.8987 350.771 57.7334 350.744 57.5947 350.712V349.592C57.7121 349.613 57.8507 349.635 58.0107 349.656C58.1814 349.677 58.3574 349.688 58.5387 349.688C58.8694 349.688 59.1521 349.624 59.3867 349.496C59.6321 349.379 59.8401 349.203 60.0107 348.968C60.1814 348.744 60.3254 348.477 60.4427 348.168L60.8907 347.032L57.4347 338.424ZM73.579 334.872C73.5363 335.405 73.403 335.853 73.179 336.216C72.9657 336.579 72.6457 336.851 72.219 337.032C71.7923 337.213 71.2377 337.304 70.555 337.304C69.8617 337.304 69.3017 337.213 68.875 337.032C68.459 336.851 68.155 336.584 67.963 336.232C67.771 335.869 67.6537 335.416 67.611 334.872H68.923C68.9763 335.448 69.1257 335.837 69.371 336.04C69.627 336.232 70.0323 336.328 70.587 336.328C71.0777 336.328 71.4617 336.227 71.739 336.024C72.027 335.811 72.1977 335.427 72.251 334.872H73.579ZM67.963 343.656C67.963 343.752 67.9577 343.891 67.947 344.072C67.947 344.243 67.9417 344.429 67.931 344.632C67.9203 344.824 67.9097 345.011 67.899 345.192C67.8883 345.363 67.8777 345.501 67.867 345.608L72.459 338.424H74.187V347H72.875V341.944C72.875 341.773 72.875 341.549 72.875 341.272C72.8857 340.995 72.8963 340.723 72.907 340.456C72.9177 340.179 72.9283 339.971 72.939 339.832L68.379 347H66.635V338.424H67.963V343.656ZM82.5362 339.608H79.7362V347H78.3442V339.608H75.5762V338.424H82.5362V339.608ZM87.0814 338.264C87.8174 338.264 88.4467 338.424 88.9694 338.744C89.5027 339.064 89.908 339.517 90.1854 340.104C90.4734 340.68 90.6174 341.357 90.6174 342.136V342.984H84.7454C84.7667 343.955 85.012 344.696 85.4814 345.208C85.9614 345.709 86.628 345.96 87.4814 345.96C88.0254 345.96 88.5054 345.912 88.9214 345.816C89.348 345.709 89.7854 345.56 90.2334 345.368V346.6C89.796 346.792 89.364 346.931 88.9374 347.016C88.5107 347.112 88.004 347.16 87.4174 347.16C86.6067 347.16 85.8867 346.995 85.2574 346.664C84.6387 346.333 84.1534 345.843 83.8014 345.192C83.46 344.531 83.2894 343.725 83.2894 342.776C83.2894 341.837 83.444 341.032 83.7534 340.36C84.0734 339.688 84.516 339.171 85.0814 338.808C85.6574 338.445 86.324 338.264 87.0814 338.264ZM87.0654 339.416C86.3934 339.416 85.86 339.635 85.4654 340.072C85.0814 340.499 84.852 341.096 84.7774 341.864H89.1454C89.1454 341.373 89.0707 340.947 88.9214 340.584C88.772 340.221 88.5427 339.939 88.2334 339.736C87.9347 339.523 87.5454 339.416 87.0654 339.416ZM97.7649 338.424V341.992H102.421V338.424H103.829V347H102.421V343.176H97.7649V347H96.3569V338.424H97.7649ZM109.492 338.28C110.538 338.28 111.311 338.509 111.812 338.968C112.314 339.427 112.564 340.157 112.564 341.16V347H111.54L111.268 345.784H111.204C110.959 346.093 110.703 346.355 110.436 346.568C110.18 346.771 109.882 346.92 109.54 347.016C109.21 347.112 108.804 347.16 108.324 347.16C107.812 347.16 107.348 347.069 106.932 346.888C106.527 346.707 106.207 346.429 105.972 346.056C105.738 345.672 105.62 345.192 105.62 344.616C105.62 343.763 105.956 343.107 106.628 342.648C107.3 342.179 108.335 341.923 109.732 341.88L111.188 341.832V341.32C111.188 340.605 111.034 340.109 110.724 339.832C110.415 339.555 109.978 339.416 109.412 339.416C108.964 339.416 108.538 339.485 108.132 339.624C107.727 339.752 107.348 339.901 106.996 340.072L106.564 339.016C106.938 338.813 107.38 338.643 107.892 338.504C108.404 338.355 108.938 338.28 109.492 338.28ZM109.908 342.856C108.842 342.899 108.1 343.069 107.684 343.368C107.279 343.667 107.076 344.088 107.076 344.632C107.076 345.112 107.22 345.464 107.508 345.688C107.807 345.912 108.186 346.024 108.644 346.024C109.37 346.024 109.972 345.827 110.452 345.432C110.932 345.027 111.172 344.408 111.172 343.576V342.808L109.908 342.856ZM122.161 338.424V347H120.753V339.624H116.321V347H114.913V338.424H122.161ZM125.926 343.656C125.926 343.752 125.92 343.891 125.91 344.072C125.91 344.243 125.904 344.429 125.894 344.632C125.883 344.824 125.872 345.011 125.862 345.192C125.851 345.363 125.84 345.501 125.83 345.608L130.422 338.424H132.15V347H130.838V341.944C130.838 341.773 130.838 341.549 130.838 341.272C130.848 340.995 130.859 340.723 130.87 340.456C130.88 340.179 130.891 339.971 130.902 339.832L126.342 347H124.598V338.424H125.926V343.656ZM138.019 347.16C137.261 347.16 136.584 347.005 135.987 346.696C135.4 346.387 134.936 345.907 134.595 345.256C134.264 344.605 134.099 343.773 134.099 342.76C134.099 341.704 134.275 340.845 134.627 340.184C134.979 339.523 135.453 339.037 136.051 338.728C136.659 338.419 137.347 338.264 138.115 338.264C138.552 338.264 138.973 338.312 139.379 338.408C139.784 338.493 140.115 338.6 140.371 338.728L139.939 339.896C139.683 339.8 139.384 339.709 139.043 339.624C138.701 339.539 138.381 339.496 138.083 339.496C137.507 339.496 137.032 339.619 136.659 339.864C136.285 340.109 136.008 340.472 135.827 340.952C135.645 341.432 135.555 342.029 135.555 342.744C135.555 343.427 135.645 344.008 135.827 344.488C136.008 344.968 136.28 345.331 136.643 345.576C137.005 345.821 137.459 345.944 138.003 345.944C138.472 345.944 138.883 345.896 139.235 345.8C139.597 345.704 139.928 345.587 140.227 345.448V346.696C139.939 346.845 139.619 346.957 139.267 347.032C138.925 347.117 138.509 347.16 138.019 347.16ZM145.214 338.28C146.26 338.28 147.033 338.509 147.534 338.968C148.036 339.427 148.286 340.157 148.286 341.16V347H147.262L146.99 345.784H146.926C146.681 346.093 146.425 346.355 146.158 346.568C145.902 346.771 145.604 346.92 145.262 347.016C144.932 347.112 144.526 347.16 144.046 347.16C143.534 347.16 143.07 347.069 142.654 346.888C142.249 346.707 141.929 346.429 141.694 346.056C141.46 345.672 141.342 345.192 141.342 344.616C141.342 343.763 141.678 343.107 142.35 342.648C143.022 342.179 144.057 341.923 145.454 341.88L146.91 341.832V341.32C146.91 340.605 146.756 340.109 146.446 339.832C146.137 339.555 145.7 339.416 145.134 339.416C144.686 339.416 144.26 339.485 143.854 339.624C143.449 339.752 143.07 339.901 142.718 340.072L142.286 339.016C142.66 338.813 143.102 338.643 143.614 338.504C144.126 338.355 144.66 338.28 145.214 338.28ZM145.63 342.856C144.564 342.899 143.822 343.069 143.406 343.368C143.001 343.667 142.798 344.088 142.798 344.632C142.798 345.112 142.942 345.464 143.23 345.688C143.529 345.912 143.908 346.024 144.366 346.024C145.092 346.024 145.694 345.827 146.174 345.432C146.654 345.027 146.894 344.408 146.894 343.576V342.808L145.63 342.856ZM156.555 339.608H153.755V347H152.363V339.608H149.595V338.424H156.555V339.608ZM161.896 341.944C162.643 341.944 163.262 342.035 163.752 342.216C164.243 342.397 164.611 342.669 164.856 343.032C165.112 343.384 165.24 343.832 165.24 344.376C165.24 344.909 165.118 345.373 164.872 345.768C164.638 346.163 164.27 346.467 163.768 346.68C163.267 346.893 162.622 347 161.832 347H157.944V338.424H159.352V341.944H161.896ZM163.832 344.456C163.832 343.933 163.646 343.581 163.272 343.4C162.91 343.208 162.398 343.112 161.736 343.112H159.352V345.864H161.768C162.366 345.864 162.856 345.757 163.24 345.544C163.635 345.331 163.832 344.968 163.832 344.456ZM172.409 338.424V341.992H177.065V338.424H178.473V347H177.065V343.176H172.409V347H171.001V338.424H172.409ZM184.136 338.28C185.181 338.28 185.955 338.509 186.456 338.968C186.957 339.427 187.208 340.157 187.208 341.16V347H186.184L185.912 345.784H185.848C185.603 346.093 185.347 346.355 185.08 346.568C184.824 346.771 184.525 346.92 184.184 347.016C183.853 347.112 183.448 347.16 182.968 347.16C182.456 347.16 181.992 347.069 181.576 346.888C181.171 346.707 180.851 346.429 180.616 346.056C180.381 345.672 180.264 345.192 180.264 344.616C180.264 343.763 180.6 343.107 181.272 342.648C181.944 342.179 182.979 341.923 184.376 341.88L185.832 341.832V341.32C185.832 340.605 185.677 340.109 185.368 339.832C185.059 339.555 184.621 339.416 184.056 339.416C183.608 339.416 183.181 339.485 182.776 339.624C182.371 339.752 181.992 339.901 181.64 340.072L181.208 339.016C181.581 338.813 182.024 338.643 182.536 338.504C183.048 338.355 183.581 338.28 184.136 338.28ZM184.552 342.856C183.485 342.899 182.744 343.069 182.328 343.368C181.923 343.667 181.72 344.088 181.72 344.632C181.72 345.112 181.864 345.464 182.152 345.688C182.451 345.912 182.829 346.024 183.288 346.024C184.013 346.024 184.616 345.827 185.096 345.432C185.576 345.027 185.816 344.408 185.816 343.576V342.808L184.552 342.856ZM191.813 338.264C192.464 338.264 193.029 338.355 193.509 338.536C193.989 338.707 194.362 338.963 194.629 339.304C194.896 339.635 195.029 340.04 195.029 340.52C195.029 341.043 194.885 341.459 194.597 341.768C194.309 342.067 193.914 342.285 193.413 342.424V342.488C193.754 342.584 194.069 342.717 194.357 342.888C194.645 343.059 194.874 343.283 195.045 343.56C195.226 343.837 195.317 344.195 195.317 344.632C195.317 345.101 195.184 345.528 194.917 345.912C194.661 346.296 194.261 346.6 193.717 346.824C193.184 347.048 192.496 347.16 191.653 347.16C191.248 347.16 190.858 347.139 190.485 347.096C190.122 347.053 189.792 346.989 189.493 346.904C189.205 346.819 188.949 346.717 188.725 346.6V345.336C189.088 345.507 189.514 345.661 190.005 345.8C190.506 345.939 191.05 346.008 191.637 346.008C192.064 346.008 192.448 345.96 192.789 345.864C193.141 345.768 193.418 345.619 193.621 345.416C193.824 345.203 193.925 344.915 193.925 344.552C193.925 344.221 193.834 343.955 193.653 343.752C193.472 343.539 193.2 343.379 192.837 343.272C192.485 343.165 192.032 343.112 191.477 343.112H190.325V341.96H191.253C191.989 341.96 192.576 341.864 193.013 341.672C193.461 341.469 193.685 341.128 193.685 340.648C193.685 340.243 193.514 339.939 193.173 339.736C192.842 339.533 192.362 339.432 191.733 339.432C191.264 339.432 190.848 339.48 190.485 339.576C190.133 339.661 189.744 339.795 189.317 339.976L188.821 338.856C189.28 338.653 189.76 338.504 190.261 338.408C190.762 338.312 191.28 338.264 191.813 338.264ZM203.997 340.584C203.997 341.117 203.837 341.533 203.517 341.832C203.197 342.131 202.786 342.333 202.285 342.44V342.504C202.818 342.579 203.282 342.771 203.677 343.08C204.071 343.379 204.269 343.848 204.269 344.488C204.269 344.851 204.199 345.187 204.061 345.496C203.933 345.805 203.73 346.072 203.453 346.296C203.175 346.52 202.818 346.696 202.381 346.824C201.943 346.941 201.415 347 200.797 347H197.101V338.424H200.781C201.389 338.424 201.933 338.493 202.413 338.632C202.903 338.76 203.287 338.984 203.565 339.304C203.853 339.613 203.997 340.04 203.997 340.584ZM202.813 344.488C202.813 343.997 202.626 343.645 202.253 343.432C201.879 343.219 201.33 343.112 200.605 343.112H198.509V345.864H200.637C201.341 345.864 201.879 345.763 202.253 345.56C202.626 345.347 202.813 344.989 202.813 344.488ZM202.573 340.76C202.573 340.355 202.423 340.061 202.125 339.88C201.837 339.688 201.362 339.592 200.701 339.592H198.509V341.944H200.445C201.138 341.944 201.666 341.848 202.029 341.656C202.391 341.464 202.573 341.165 202.573 340.76ZM209.267 338.28C210.313 338.28 211.086 338.509 211.587 338.968C212.089 339.427 212.339 340.157 212.339 341.16V347H211.315L211.043 345.784H210.979C210.734 346.093 210.478 346.355 210.211 346.568C209.955 346.771 209.657 346.92 209.315 347.016C208.985 347.112 208.579 347.16 208.099 347.16C207.587 347.16 207.123 347.069 206.707 346.888C206.302 346.707 205.982 346.429 205.747 346.056C205.513 345.672 205.395 345.192 205.395 344.616C205.395 343.763 205.731 343.107 206.403 342.648C207.075 342.179 208.11 341.923 209.507 341.88L210.963 341.832V341.32C210.963 340.605 210.809 340.109 210.499 339.832C210.19 339.555 209.753 339.416 209.187 339.416C208.739 339.416 208.313 339.485 207.907 339.624C207.502 339.752 207.123 339.901 206.771 340.072L206.339 339.016C206.713 338.813 207.155 338.643 207.667 338.504C208.179 338.355 208.713 338.28 209.267 338.28ZM209.683 342.856C208.617 342.899 207.875 343.069 207.459 343.368C207.054 343.667 206.851 344.088 206.851 344.632C206.851 345.112 206.995 345.464 207.283 345.688C207.582 345.912 207.961 346.024 208.419 346.024C209.145 346.024 209.747 345.827 210.227 345.432C210.707 345.027 210.947 344.408 210.947 343.576V342.808L209.683 342.856ZM216.096 338.424V341.992H220.752V338.424H222.16V347H220.752V343.176H216.096V347H214.688V338.424H216.096ZM225.904 343.656C225.904 343.752 225.898 343.891 225.888 344.072C225.888 344.243 225.882 344.429 225.872 344.632C225.861 344.824 225.85 345.011 225.84 345.192C225.829 345.363 225.818 345.501 225.808 345.608L230.4 338.424H232.128V347H230.816V341.944C230.816 341.773 230.816 341.549 230.816 341.272C230.826 340.995 230.837 340.723 230.848 340.456C230.858 340.179 230.869 339.971 230.88 339.832L226.32 347H224.576V338.424H225.904V343.656ZM237.869 338.264C238.605 338.264 239.234 338.424 239.757 338.744C240.29 339.064 240.696 339.517 240.973 340.104C241.261 340.68 241.405 341.357 241.405 342.136V342.984H235.533C235.554 343.955 235.8 344.696 236.269 345.208C236.749 345.709 237.416 345.96 238.269 345.96C238.813 345.96 239.293 345.912 239.709 345.816C240.136 345.709 240.573 345.56 241.021 345.368V346.6C240.584 346.792 240.152 346.931 239.725 347.016C239.298 347.112 238.792 347.16 238.205 347.16C237.394 347.16 236.674 346.995 236.045 346.664C235.426 346.333 234.941 345.843 234.589 345.192C234.248 344.531 234.077 343.725 234.077 342.776C234.077 341.837 234.232 341.032 234.541 340.36C234.861 339.688 235.304 339.171 235.869 338.808C236.445 338.445 237.112 338.264 237.869 338.264ZM237.853 339.416C237.181 339.416 236.648 339.635 236.253 340.072C235.869 340.499 235.64 341.096 235.565 341.864H239.933C239.933 341.373 239.858 340.947 239.709 340.584C239.56 340.221 239.33 339.939 239.021 339.736C238.722 339.523 238.333 339.416 237.853 339.416ZM253.064 339.608H250.264V347H248.872V339.608H246.104V338.424H253.064V339.608ZM261.753 342.696C261.753 343.411 261.658 344.045 261.466 344.6C261.284 345.144 261.018 345.608 260.666 345.992C260.324 346.376 259.903 346.669 259.402 346.872C258.911 347.064 258.362 347.16 257.754 347.16C257.188 347.16 256.666 347.064 256.186 346.872C255.706 346.669 255.29 346.376 254.938 345.992C254.586 345.608 254.308 345.144 254.106 344.6C253.914 344.045 253.818 343.411 253.818 342.696C253.818 341.747 253.978 340.947 254.298 340.296C254.618 339.635 255.076 339.133 255.674 338.792C256.271 338.44 256.98 338.264 257.802 338.264C258.58 338.264 259.263 338.44 259.85 338.792C260.447 339.133 260.911 339.635 261.242 340.296C261.583 340.947 261.753 341.747 261.753 342.696ZM255.274 342.696C255.274 343.368 255.359 343.955 255.53 344.456C255.711 344.947 255.988 345.325 256.362 345.592C256.735 345.859 257.21 345.992 257.786 345.992C258.362 345.992 258.836 345.859 259.21 345.592C259.583 345.325 259.855 344.947 260.026 344.456C260.207 343.955 260.298 343.368 260.298 342.696C260.298 342.013 260.207 341.432 260.026 340.952C259.844 340.472 259.567 340.104 259.194 339.848C258.831 339.581 258.356 339.448 257.77 339.448C256.895 339.448 256.26 339.736 255.866 340.312C255.471 340.888 255.274 341.683 255.274 342.696ZM270.581 340.584C270.581 341.117 270.421 341.533 270.101 341.832C269.781 342.131 269.37 342.333 268.869 342.44V342.504C269.402 342.579 269.866 342.771 270.261 343.08C270.656 343.379 270.853 343.848 270.853 344.488C270.853 344.851 270.784 345.187 270.645 345.496C270.517 345.805 270.314 346.072 270.037 346.296C269.76 346.52 269.402 346.696 268.965 346.824C268.528 346.941 268 347 267.381 347H263.685V338.424H267.365C267.973 338.424 268.517 338.493 268.997 338.632C269.488 338.76 269.872 338.984 270.149 339.304C270.437 339.613 270.581 340.04 270.581 340.584ZM269.397 344.488C269.397 343.997 269.21 343.645 268.837 343.432C268.464 343.219 267.914 343.112 267.189 343.112H265.093V345.864H267.221C267.925 345.864 268.464 345.763 268.837 345.56C269.21 345.347 269.397 344.989 269.397 344.488ZM269.157 340.76C269.157 340.355 269.008 340.061 268.709 339.88C268.421 339.688 267.946 339.592 267.285 339.592H265.093V341.944H267.029C267.722 341.944 268.25 341.848 268.613 341.656C268.976 341.464 269.157 341.165 269.157 340.76ZM275.852 338.28C276.897 338.28 277.67 338.509 278.172 338.968C278.673 339.427 278.924 340.157 278.924 341.16V347H277.9L277.628 345.784H277.564C277.318 346.093 277.062 346.355 276.796 346.568C276.54 346.771 276.241 346.92 275.9 347.016C275.569 347.112 275.164 347.16 274.684 347.16C274.172 347.16 273.708 347.069 273.292 346.888C272.886 346.707 272.566 346.429 272.332 346.056C272.097 345.672 271.98 345.192 271.98 344.616C271.98 343.763 272.316 343.107 272.988 342.648C273.66 342.179 274.694 341.923 276.092 341.88L277.548 341.832V341.32C277.548 340.605 277.393 340.109 277.084 339.832C276.774 339.555 276.337 339.416 275.772 339.416C275.324 339.416 274.897 339.485 274.492 339.624C274.086 339.752 273.708 339.901 273.356 340.072L272.924 339.016C273.297 338.813 273.74 338.643 274.252 338.504C274.764 338.355 275.297 338.28 275.852 338.28ZM276.268 342.856C275.201 342.899 274.46 343.069 274.044 343.368C273.638 343.667 273.436 344.088 273.436 344.632C273.436 345.112 273.58 345.464 273.868 345.688C274.166 345.912 274.545 346.024 275.004 346.024C275.729 346.024 276.332 345.827 276.812 345.432C277.292 345.027 277.532 344.408 277.532 343.576V342.808L276.268 342.856ZM285.353 338.264C286.409 338.264 287.257 338.632 287.897 339.368C288.547 340.104 288.873 341.213 288.873 342.696C288.873 343.667 288.723 344.488 288.425 345.16C288.137 345.821 287.726 346.323 287.193 346.664C286.67 346.995 286.051 347.16 285.337 347.16C284.899 347.16 284.51 347.101 284.169 346.984C283.827 346.867 283.534 346.717 283.289 346.536C283.054 346.344 282.851 346.136 282.681 345.912H282.585C282.606 346.093 282.627 346.323 282.649 346.6C282.67 346.877 282.681 347.117 282.681 347.32V350.84H281.273V338.424H282.425L282.617 339.592H282.681C282.851 339.347 283.054 339.123 283.289 338.92C283.534 338.717 283.822 338.557 284.153 338.44C284.494 338.323 284.894 338.264 285.353 338.264ZM285.097 339.448C284.521 339.448 284.057 339.56 283.705 339.784C283.353 339.997 283.097 340.323 282.937 340.76C282.777 341.197 282.691 341.752 282.681 342.424V342.696C282.681 343.4 282.755 343.997 282.905 344.488C283.054 344.979 283.305 345.352 283.657 345.608C284.019 345.864 284.51 345.992 285.129 345.992C285.651 345.992 286.078 345.848 286.409 345.56C286.75 345.272 287.001 344.883 287.161 344.392C287.331 343.891 287.417 343.32 287.417 342.68C287.417 341.699 287.225 340.915 286.841 340.328C286.467 339.741 285.886 339.448 285.097 339.448ZM294.064 338.28C295.11 338.28 295.883 338.509 296.384 338.968C296.886 339.427 297.136 340.157 297.136 341.16V347H296.112L295.84 345.784H295.776C295.531 346.093 295.275 346.355 295.008 346.568C294.752 346.771 294.454 346.92 294.112 347.016C293.782 347.112 293.376 347.16 292.896 347.16C292.384 347.16 291.92 347.069 291.504 346.888C291.099 346.707 290.779 346.429 290.544 346.056C290.31 345.672 290.192 345.192 290.192 344.616C290.192 343.763 290.528 343.107 291.2 342.648C291.872 342.179 292.907 341.923 294.304 341.88L295.76 341.832V341.32C295.76 340.605 295.606 340.109 295.296 339.832C294.987 339.555 294.55 339.416 293.984 339.416C293.536 339.416 293.11 339.485 292.704 339.624C292.299 339.752 291.92 339.901 291.568 340.072L291.136 339.016C291.51 338.813 291.952 338.643 292.464 338.504C292.976 338.355 293.51 338.28 294.064 338.28ZM294.48 342.856C293.414 342.899 292.672 343.069 292.256 343.368C291.851 343.667 291.648 344.088 291.648 344.632C291.648 345.112 291.792 345.464 292.08 345.688C292.379 345.912 292.758 346.024 293.216 346.024C293.942 346.024 294.544 345.827 295.024 345.432C295.504 345.027 295.744 344.408 295.744 343.576V342.808L294.48 342.856ZM310.589 338.424V347H309.181V339.624H304.749V347H303.341V338.424H310.589ZM320.482 342.696C320.482 343.411 320.386 344.045 320.194 344.6C320.012 345.144 319.746 345.608 319.394 345.992C319.052 346.376 318.631 346.669 318.13 346.872C317.639 347.064 317.09 347.16 316.482 347.16C315.916 347.16 315.394 347.064 314.914 346.872C314.434 346.669 314.018 346.376 313.666 345.992C313.314 345.608 313.036 345.144 312.834 344.6C312.642 344.045 312.546 343.411 312.546 342.696C312.546 341.747 312.706 340.947 313.026 340.296C313.346 339.635 313.804 339.133 314.402 338.792C314.999 338.44 315.708 338.264 316.53 338.264C317.308 338.264 317.991 338.44 318.578 338.792C319.175 339.133 319.639 339.635 319.97 340.296C320.311 340.947 320.482 341.747 320.482 342.696ZM314.002 342.696C314.002 343.368 314.087 343.955 314.258 344.456C314.439 344.947 314.716 345.325 315.09 345.592C315.463 345.859 315.938 345.992 316.514 345.992C317.09 345.992 317.564 345.859 317.938 345.592C318.311 345.325 318.583 344.947 318.754 344.456C318.935 343.955 319.026 343.368 319.026 342.696C319.026 342.013 318.935 341.432 318.754 340.952C318.572 340.472 318.295 340.104 317.922 339.848C317.559 339.581 317.084 339.448 316.498 339.448C315.623 339.448 314.988 339.736 314.594 340.312C314.199 340.888 314.002 341.683 314.002 342.696ZM332.637 338.424V345.816H333.885V349.976H332.525V347H326.557V349.976H325.213V345.816H325.901C326.392 345.133 326.797 344.392 327.117 343.592C327.448 342.781 327.693 341.939 327.853 341.064C328.024 340.179 328.115 339.299 328.125 338.424H332.637ZM329.373 339.528C329.331 340.253 329.219 341.005 329.037 341.784C328.856 342.552 328.621 343.288 328.333 343.992C328.056 344.696 327.731 345.304 327.357 345.816H331.277V339.528H329.373ZM339.346 338.264C340.402 338.264 341.25 338.632 341.89 339.368C342.541 340.104 342.866 341.213 342.866 342.696C342.866 343.667 342.717 344.488 342.418 345.16C342.13 345.821 341.72 346.323 341.186 346.664C340.664 346.995 340.045 347.16 339.33 347.16C338.893 347.16 338.504 347.101 338.162 346.984C337.821 346.867 337.528 346.717 337.282 346.536C337.048 346.344 336.845 346.136 336.674 345.912H336.578C336.6 346.093 336.621 346.323 336.642 346.6C336.664 346.877 336.674 347.117 336.674 347.32V350.84H335.266V338.424H336.418L336.61 339.592H336.674C336.845 339.347 337.048 339.123 337.282 338.92C337.528 338.717 337.816 338.557 338.146 338.44C338.488 338.323 338.888 338.264 339.346 338.264ZM339.09 339.448C338.514 339.448 338.05 339.56 337.698 339.784C337.346 339.997 337.09 340.323 336.93 340.76C336.77 341.197 336.685 341.752 336.674 342.424V342.696C336.674 343.4 336.749 343.997 336.898 344.488C337.048 344.979 337.298 345.352 337.65 345.608C338.013 345.864 338.504 345.992 339.122 345.992C339.645 345.992 340.072 345.848 340.402 345.56C340.744 345.272 340.994 344.883 341.154 344.392C341.325 343.891 341.41 343.32 341.41 342.68C341.41 341.699 341.218 340.915 340.834 340.328C340.461 339.741 339.88 339.448 339.09 339.448ZM343.31 338.424H344.814L346.67 343.304C346.776 343.592 346.872 343.869 346.958 344.136C347.054 344.403 347.139 344.664 347.214 344.92C347.288 345.165 347.347 345.405 347.39 345.64H347.454C347.518 345.373 347.619 345.027 347.758 344.6C347.896 344.163 348.04 343.725 348.19 343.288L349.934 338.424H351.454L347.758 348.184C347.555 348.717 347.315 349.181 347.038 349.576C346.771 349.981 346.44 350.291 346.046 350.504C345.662 350.728 345.192 350.84 344.638 350.84C344.382 350.84 344.158 350.824 343.966 350.792C343.774 350.771 343.608 350.744 343.47 350.712V349.592C343.587 349.613 343.726 349.635 343.886 349.656C344.056 349.677 344.232 349.688 344.414 349.688C344.744 349.688 345.027 349.624 345.262 349.496C345.507 349.379 345.715 349.203 345.886 348.968C346.056 348.744 346.2 348.477 346.318 348.168L346.766 347.032L343.31 338.424ZM357.742 338.424V339.608H353.918V347H352.51V338.424H357.742ZM366.432 342.696C366.432 343.411 366.336 344.045 366.144 344.6C365.962 345.144 365.696 345.608 365.344 345.992C365.002 346.376 364.581 346.669 364.08 346.872C363.589 347.064 363.04 347.16 362.432 347.16C361.866 347.16 361.344 347.064 360.864 346.872C360.384 346.669 359.968 346.376 359.616 345.992C359.264 345.608 358.986 345.144 358.784 344.6C358.592 344.045 358.496 343.411 358.496 342.696C358.496 341.747 358.656 340.947 358.976 340.296C359.296 339.635 359.754 339.133 360.352 338.792C360.949 338.44 361.658 338.264 362.48 338.264C363.258 338.264 363.941 338.44 364.528 338.792C365.125 339.133 365.589 339.635 365.92 340.296C366.261 340.947 366.432 341.747 366.432 342.696ZM359.952 342.696C359.952 343.368 360.037 343.955 360.208 344.456C360.389 344.947 360.666 345.325 361.04 345.592C361.413 345.859 361.888 345.992 362.464 345.992C363.04 345.992 363.514 345.859 363.888 345.592C364.261 345.325 364.533 344.947 364.704 344.456C364.885 343.955 364.976 343.368 364.976 342.696C364.976 342.013 364.885 341.432 364.704 340.952C364.522 340.472 364.245 340.104 363.872 339.848C363.509 339.581 363.034 339.448 362.448 339.448C361.573 339.448 360.938 339.736 360.544 340.312C360.149 340.888 359.952 341.683 359.952 342.696ZM377.563 338.424V347H376.299V341.528C376.299 341.304 376.304 341.069 376.315 340.824C376.336 340.579 376.358 340.339 376.379 340.104H376.331L373.531 347H372.347L369.627 340.104H369.579C369.6 340.339 369.611 340.579 369.611 340.824C369.622 341.069 369.627 341.32 369.627 341.576V347H368.363V338.424H370.235L372.939 345.32L375.691 338.424H377.563ZM378.657 338.424H380.161L382.017 343.304C382.123 343.592 382.219 343.869 382.305 344.136C382.401 344.403 382.486 344.664 382.561 344.92C382.635 345.165 382.694 345.405 382.737 345.64H382.801C382.865 345.373 382.966 345.027 383.105 344.6C383.243 344.163 383.387 343.725 383.537 343.288L385.281 338.424H386.801L383.105 348.184C382.902 348.717 382.662 349.181 382.385 349.576C382.118 349.981 381.787 350.291 381.393 350.504C381.009 350.728 380.539 350.84 379.985 350.84C379.729 350.84 379.505 350.824 379.313 350.792C379.121 350.771 378.955 350.744 378.817 350.712V349.592C378.934 349.613 379.073 349.635 379.233 349.656C379.403 349.677 379.579 349.688 379.761 349.688C380.091 349.688 380.374 349.624 380.609 349.496C380.854 349.379 381.062 349.203 381.233 348.968C381.403 348.744 381.547 348.477 381.665 348.168L382.113 347.032L378.657 338.424ZM393.041 343.656C393.041 343.752 393.036 343.891 393.025 344.072C393.025 344.243 393.02 344.429 393.009 344.632C392.998 344.824 392.988 345.011 392.977 345.192C392.966 345.363 392.956 345.501 392.945 345.608L397.537 338.424H399.265V347H397.953V341.944C397.953 341.773 397.953 341.549 397.953 341.272C397.964 340.995 397.974 340.723 397.985 340.456C397.996 340.179 398.006 339.971 398.017 339.832L393.457 347H391.713V338.424H393.041V343.656ZM408.222 347H406.798V339.592H404.27C404.164 340.947 404.03 342.104 403.87 343.064C403.71 344.013 403.508 344.787 403.262 345.384C403.017 345.981 402.724 346.419 402.382 346.696C402.041 346.973 401.641 347.112 401.182 347.112C401.044 347.112 400.905 347.101 400.766 347.08C400.638 347.069 400.532 347.043 400.446 347V345.944C400.51 345.965 400.58 345.981 400.654 345.992C400.729 346.003 400.804 346.008 400.878 346.008C401.113 346.008 401.326 345.912 401.518 345.72C401.71 345.528 401.881 345.235 402.03 344.84C402.19 344.445 402.334 343.949 402.462 343.352C402.59 342.744 402.702 342.029 402.798 341.208C402.894 340.387 402.98 339.459 403.054 338.424H408.222V347ZM411.972 343.656C411.972 343.752 411.967 343.891 411.956 344.072C411.956 344.243 411.951 344.429 411.94 344.632C411.93 344.824 411.919 345.011 411.908 345.192C411.898 345.363 411.887 345.501 411.876 345.608L416.468 338.424H418.196V347H416.884V341.944C416.884 341.773 416.884 341.549 416.884 341.272C416.895 340.995 416.906 340.723 416.916 340.456C416.927 340.179 416.938 339.971 416.948 339.832L412.388 347H410.644V338.424H411.972V343.656ZM146.366 364.656C146.366 364.752 146.361 364.891 146.35 365.072C146.35 365.243 146.345 365.429 146.334 365.632C146.323 365.824 146.313 366.011 146.302 366.192C146.291 366.363 146.281 366.501 146.27 366.608L150.862 359.424H152.59V368H151.278V362.944C151.278 362.773 151.278 362.549 151.278 362.272C151.289 361.995 151.299 361.723 151.31 361.456C151.321 361.179 151.331 360.971 151.342 360.832L146.782 368H145.038V359.424H146.366V364.656ZM157.275 359.264C157.926 359.264 158.491 359.355 158.971 359.536C159.451 359.707 159.825 359.963 160.091 360.304C160.358 360.635 160.491 361.04 160.491 361.52C160.491 362.043 160.347 362.459 160.059 362.768C159.771 363.067 159.377 363.285 158.875 363.424V363.488C159.217 363.584 159.531 363.717 159.819 363.888C160.107 364.059 160.337 364.283 160.507 364.56C160.689 364.837 160.779 365.195 160.779 365.632C160.779 366.101 160.646 366.528 160.379 366.912C160.123 367.296 159.723 367.6 159.179 367.824C158.646 368.048 157.958 368.16 157.115 368.16C156.71 368.16 156.321 368.139 155.947 368.096C155.585 368.053 155.254 367.989 154.955 367.904C154.667 367.819 154.411 367.717 154.187 367.6V366.336C154.55 366.507 154.977 366.661 155.467 366.8C155.969 366.939 156.513 367.008 157.099 367.008C157.526 367.008 157.91 366.96 158.251 366.864C158.603 366.768 158.881 366.619 159.083 366.416C159.286 366.203 159.387 365.915 159.387 365.552C159.387 365.221 159.297 364.955 159.115 364.752C158.934 364.539 158.662 364.379 158.299 364.272C157.947 364.165 157.494 364.112 156.939 364.112H155.787V362.96H156.715C157.451 362.96 158.038 362.864 158.475 362.672C158.923 362.469 159.147 362.128 159.147 361.648C159.147 361.243 158.977 360.939 158.635 360.736C158.305 360.533 157.825 360.432 157.195 360.432C156.726 360.432 156.31 360.48 155.947 360.576C155.595 360.661 155.206 360.795 154.779 360.976L154.283 359.856C154.742 359.653 155.222 359.504 155.723 359.408C156.225 359.312 156.742 359.264 157.275 359.264ZM171.763 359.424V368H170.499V362.528C170.499 362.304 170.504 362.069 170.515 361.824C170.536 361.579 170.558 361.339 170.579 361.104H170.531L167.731 368H166.547L163.827 361.104H163.779C163.8 361.339 163.811 361.579 163.811 361.824C163.822 362.069 163.827 362.32 163.827 362.576V368H162.563V359.424H164.435L167.139 366.32L169.891 359.424H171.763ZM177.513 359.264C178.249 359.264 178.878 359.424 179.401 359.744C179.934 360.064 180.339 360.517 180.617 361.104C180.905 361.68 181.049 362.357 181.049 363.136V363.984H175.177C175.198 364.955 175.443 365.696 175.913 366.208C176.393 366.709 177.059 366.96 177.913 366.96C178.457 366.96 178.937 366.912 179.353 366.816C179.779 366.709 180.217 366.56 180.665 366.368V367.6C180.227 367.792 179.795 367.931 179.369 368.016C178.942 368.112 178.435 368.16 177.849 368.16C177.038 368.16 176.318 367.995 175.689 367.664C175.07 367.333 174.585 366.843 174.233 366.192C173.891 365.531 173.721 364.725 173.721 363.776C173.721 362.837 173.875 362.032 174.185 361.36C174.505 360.688 174.947 360.171 175.513 359.808C176.089 359.445 176.755 359.264 177.513 359.264ZM177.497 360.416C176.825 360.416 176.291 360.635 175.897 361.072C175.513 361.499 175.283 362.096 175.209 362.864H179.577C179.577 362.373 179.502 361.947 179.353 361.584C179.203 361.221 178.974 360.939 178.665 360.736C178.366 360.523 177.977 360.416 177.497 360.416ZM184.34 359.424V362.992H188.996V359.424H190.404V368H188.996V364.176H184.34V368H182.932V359.424H184.34ZM194.147 364.656C194.147 364.752 194.142 364.891 194.131 365.072C194.131 365.243 194.126 365.429 194.115 365.632C194.105 365.824 194.094 366.011 194.083 366.192C194.073 366.363 194.062 366.501 194.051 366.608L198.643 359.424H200.371V368H199.059V362.944C199.059 362.773 199.059 362.549 199.059 362.272C199.07 361.995 199.081 361.723 199.091 361.456C199.102 361.179 199.113 360.971 199.123 360.832L194.563 368H192.819V359.424H194.147V364.656ZM208.721 360.608H205.921V368H204.529V360.608H201.761V359.424H208.721V360.608ZM214.062 362.944C214.809 362.944 215.427 363.035 215.918 363.216C216.409 363.397 216.777 363.669 217.022 364.032C217.278 364.384 217.406 364.832 217.406 365.376C217.406 365.909 217.283 366.373 217.038 366.768C216.803 367.163 216.435 367.467 215.934 367.68C215.433 367.893 214.787 368 213.998 368H210.11V359.424H211.518V362.944H214.062ZM215.998 365.456C215.998 364.933 215.811 364.581 215.438 364.4C215.075 364.208 214.563 364.112 213.902 364.112H211.518V366.864H213.934C214.531 366.864 215.022 366.757 215.406 366.544C215.801 366.331 215.998 365.968 215.998 365.456ZM225.422 359.264C226.073 359.264 226.638 359.355 227.118 359.536C227.598 359.707 227.972 359.963 228.238 360.304C228.505 360.635 228.638 361.04 228.638 361.52C228.638 362.043 228.494 362.459 228.206 362.768C227.918 363.067 227.524 363.285 227.022 363.424V363.488C227.364 363.584 227.678 363.717 227.966 363.888C228.254 364.059 228.484 364.283 228.654 364.56C228.836 364.837 228.926 365.195 228.926 365.632C228.926 366.101 228.793 366.528 228.526 366.912C228.27 367.296 227.87 367.6 227.326 367.824C226.793 368.048 226.105 368.16 225.262 368.16C224.857 368.16 224.468 368.139 224.094 368.096C223.732 368.053 223.401 367.989 223.102 367.904C222.814 367.819 222.558 367.717 222.334 367.6V366.336C222.697 366.507 223.124 366.661 223.614 366.8C224.116 366.939 224.66 367.008 225.246 367.008C225.673 367.008 226.057 366.96 226.398 366.864C226.75 366.768 227.028 366.619 227.23 366.416C227.433 366.203 227.534 365.915 227.534 365.552C227.534 365.221 227.444 364.955 227.262 364.752C227.081 364.539 226.809 364.379 226.446 364.272C226.094 364.165 225.641 364.112 225.086 364.112H223.934V362.96H224.862C225.598 362.96 226.185 362.864 226.622 362.672C227.07 362.469 227.294 362.128 227.294 361.648C227.294 361.243 227.124 360.939 226.782 360.736C226.452 360.533 225.972 360.432 225.342 360.432C224.873 360.432 224.457 360.48 224.094 360.576C223.742 360.661 223.353 360.795 222.926 360.976L222.43 359.856C222.889 359.653 223.369 359.504 223.87 359.408C224.372 359.312 224.889 359.264 225.422 359.264ZM233.958 359.28C235.003 359.28 235.777 359.509 236.278 359.968C236.779 360.427 237.03 361.157 237.03 362.16V368H236.006L235.734 366.784H235.67C235.425 367.093 235.169 367.355 234.902 367.568C234.646 367.771 234.347 367.92 234.006 368.016C233.675 368.112 233.27 368.16 232.79 368.16C232.278 368.16 231.814 368.069 231.398 367.888C230.993 367.707 230.673 367.429 230.438 367.056C230.203 366.672 230.086 366.192 230.086 365.616C230.086 364.763 230.422 364.107 231.094 363.648C231.766 363.179 232.801 362.923 234.198 362.88L235.654 362.832V362.32C235.654 361.605 235.499 361.109 235.19 360.832C234.881 360.555 234.443 360.416 233.878 360.416C233.43 360.416 233.003 360.485 232.598 360.624C232.193 360.752 231.814 360.901 231.462 361.072L231.03 360.016C231.403 359.813 231.846 359.643 232.358 359.504C232.87 359.355 233.403 359.28 233.958 359.28ZM234.374 363.856C233.307 363.899 232.566 364.069 232.15 364.368C231.745 364.667 231.542 365.088 231.542 365.632C231.542 366.112 231.686 366.464 231.974 366.688C232.273 366.912 232.651 367.024 233.11 367.024C233.835 367.024 234.438 366.827 234.918 366.432C235.398 366.027 235.638 365.408 235.638 364.576V363.808L234.374 363.856ZM246.627 359.424V368H245.219V360.624H240.787V368H239.379V359.424H246.627ZM253.143 359.264C254.199 359.264 255.047 359.632 255.687 360.368C256.338 361.104 256.663 362.213 256.663 363.696C256.663 364.667 256.514 365.488 256.215 366.16C255.927 366.821 255.516 367.323 254.983 367.664C254.46 367.995 253.842 368.16 253.127 368.16C252.69 368.16 252.3 368.101 251.959 367.984C251.618 367.867 251.324 367.717 251.079 367.536C250.844 367.344 250.642 367.136 250.471 366.912H250.375C250.396 367.093 250.418 367.323 250.439 367.6C250.46 367.877 250.471 368.117 250.471 368.32V371.84H249.063V359.424H250.215L250.407 360.592H250.471C250.642 360.347 250.844 360.123 251.079 359.92C251.324 359.717 251.612 359.557 251.943 359.44C252.284 359.323 252.684 359.264 253.143 359.264ZM252.887 360.448C252.311 360.448 251.847 360.56 251.495 360.784C251.143 360.997 250.887 361.323 250.727 361.76C250.567 362.197 250.482 362.752 250.471 363.424V363.696C250.471 364.4 250.546 364.997 250.695 365.488C250.844 365.979 251.095 366.352 251.447 366.608C251.81 366.864 252.3 366.992 252.919 366.992C253.442 366.992 253.868 366.848 254.199 366.56C254.54 366.272 254.791 365.883 254.951 365.392C255.122 364.891 255.207 364.32 255.207 363.68C255.207 362.699 255.015 361.915 254.631 361.328C254.258 360.741 253.676 360.448 252.887 360.448ZM266.063 363.696C266.063 364.411 265.967 365.045 265.775 365.6C265.594 366.144 265.327 366.608 264.975 366.992C264.634 367.376 264.212 367.669 263.711 367.872C263.22 368.064 262.671 368.16 262.063 368.16C261.498 368.16 260.975 368.064 260.495 367.872C260.015 367.669 259.599 367.376 259.247 366.992C258.895 366.608 258.618 366.144 258.415 365.6C258.223 365.045 258.127 364.411 258.127 363.696C258.127 362.747 258.287 361.947 258.607 361.296C258.927 360.635 259.386 360.133 259.983 359.792C260.58 359.44 261.29 359.264 262.111 359.264C262.89 359.264 263.572 359.44 264.159 359.792C264.756 360.133 265.22 360.635 265.551 361.296C265.892 361.947 266.063 362.747 266.063 363.696ZM259.583 363.696C259.583 364.368 259.668 364.955 259.839 365.456C260.02 365.947 260.298 366.325 260.671 366.592C261.044 366.859 261.519 366.992 262.095 366.992C262.671 366.992 263.146 366.859 263.519 366.592C263.892 366.325 264.164 365.947 264.335 365.456C264.516 364.955 264.607 364.368 264.607 363.696C264.607 363.013 264.516 362.432 264.335 361.952C264.154 361.472 263.876 361.104 263.503 360.848C263.14 360.581 262.666 360.448 262.079 360.448C261.204 360.448 260.57 360.736 260.175 361.312C259.78 361.888 259.583 362.683 259.583 363.696ZM271.434 368.16C270.677 368.16 270 368.005 269.402 367.696C268.816 367.387 268.352 366.907 268.01 366.256C267.68 365.605 267.514 364.773 267.514 363.76C267.514 362.704 267.69 361.845 268.042 361.184C268.394 360.523 268.869 360.037 269.466 359.728C270.074 359.419 270.762 359.264 271.53 359.264C271.968 359.264 272.389 359.312 272.794 359.408C273.2 359.493 273.53 359.6 273.786 359.728L273.354 360.896C273.098 360.8 272.8 360.709 272.458 360.624C272.117 360.539 271.797 360.496 271.498 360.496C270.922 360.496 270.448 360.619 270.074 360.864C269.701 361.109 269.424 361.472 269.242 361.952C269.061 362.432 268.97 363.029 268.97 363.744C268.97 364.427 269.061 365.008 269.242 365.488C269.424 365.968 269.696 366.331 270.058 366.576C270.421 366.821 270.874 366.944 271.418 366.944C271.888 366.944 272.298 366.896 272.65 366.8C273.013 366.704 273.344 366.587 273.642 366.448V367.696C273.354 367.845 273.034 367.957 272.682 368.032C272.341 368.117 271.925 368.16 271.434 368.16Z" fill="#6B6B6B"/>
</svg>
