<svg xmlns="http://www.w3.org/2000/svg" xmlns:xlink="http://www.w3.org/1999/xlink" width="40" zoomAndPan="magnify" viewBox="0 0 30 30.000001" height="40" preserveAspectRatio="xMidYMid meet" version="1.0">

    <path fill="#ffffff" d="M 15 0 C 14.046875 0 13.101562 0.09375 12.167969 0.277344 C 11.234375 0.464844 10.324219 0.738281 9.445312 1.105469 C 8.5625 1.46875 7.726562 1.917969 6.933594 2.445312 C 6.144531 2.976562 5.410156 3.578125 4.734375 4.25 C 4.0625 4.925781 3.460938 5.660156 2.929688 6.453125 C 2.402344 7.242188 1.953125 8.082031 1.589844 8.960938 C 1.222656 9.839844 0.949219 10.75 0.761719 11.683594 C 0.578125 12.617188 0.484375 13.5625 0.484375 14.515625 C 0.484375 15.46875 0.578125 16.414062 0.761719 17.347656 C 0.949219 18.28125 1.222656 19.191406 1.589844 20.070312 C 1.953125 20.953125 2.402344 21.789062 2.929688 22.582031 C 3.460938 23.375 4.0625 24.105469 4.734375 24.78125 C 5.410156 25.453125 6.144531 26.054688 6.933594 26.585938 C 7.726562 27.117188 8.5625 27.5625 9.445312 27.925781 C 10.324219 28.292969 11.234375 28.566406 12.167969 28.753906 C 13.101562 28.9375 14.046875 29.03125 15 29.03125 C 15.953125 29.03125 16.898438 28.9375 17.832031 28.753906 C 18.765625 28.566406 19.675781 28.292969 20.554688 27.925781 C 21.4375 27.5625 22.273438 27.117188 23.066406 26.585938 C 23.855469 26.054688 24.589844 25.453125 25.265625 24.78125 C 25.9375 24.105469 26.539062 23.375 27.070312 22.582031 C 27.597656 21.789062 28.046875 20.953125 28.410156 20.070312 C 28.777344 19.191406 29.050781 18.28125 29.238281 17.347656 C 29.421875 16.414062 29.515625 15.46875 29.515625 14.515625 C 29.515625 13.5625 29.421875 12.617188 29.238281 11.683594 C 29.050781 10.75 28.777344 9.839844 28.410156 8.960938 C 28.046875 8.082031 27.597656 7.242188 27.070312 6.453125 C 26.539062 5.660156 25.9375 4.925781 25.265625 4.25 C 24.589844 3.578125 23.855469 2.976562 23.066406 2.445312 C 22.273438 1.917969 21.4375 1.46875 20.554688 1.105469 C 19.675781 0.738281 18.765625 0.464844 17.832031 0.277344 C 16.898438 0.09375 15.953125 0 15 0 Z M 23.289062 15.546875 L 17.480469 21.351562 C 17.347656 21.492188 17.1875 21.597656 17.011719 21.671875 C 16.832031 21.746094 16.644531 21.78125 16.453125 21.78125 C 16.257812 21.78125 16.070312 21.746094 15.894531 21.671875 C 15.714844 21.597656 15.558594 21.492188 15.421875 21.351562 C 15.285156 21.21875 15.175781 21.058594 15.101562 20.878906 C 15.027344 20.703125 14.992188 20.515625 14.992188 20.324219 C 14.992188 20.128906 15.027344 19.941406 15.101562 19.765625 C 15.175781 19.585938 15.285156 19.429688 15.421875 19.292969 L 18.757812 15.96875 L 7.742188 15.96875 C 7.550781 15.96875 7.363281 15.929688 7.1875 15.855469 C 7.007812 15.785156 6.851562 15.679688 6.714844 15.542969 C 6.578125 15.40625 6.472656 15.25 6.402344 15.070312 C 6.328125 14.894531 6.289062 14.707031 6.289062 14.515625 C 6.289062 14.324219 6.328125 14.136719 6.402344 13.960938 C 6.472656 13.78125 6.578125 13.625 6.714844 13.488281 C 6.851562 13.355469 7.007812 13.25 7.1875 13.175781 C 7.363281 13.101562 7.550781 13.066406 7.742188 13.066406 L 18.757812 13.066406 L 15.421875 9.742188 C 15.285156 9.605469 15.179688 9.445312 15.105469 9.265625 C 15.03125 9.089844 14.992188 8.902344 14.992188 8.710938 C 14.992188 8.515625 15.03125 8.332031 15.105469 8.152344 C 15.179688 7.972656 15.285156 7.816406 15.421875 7.679688 C 15.558594 7.542969 15.714844 7.4375 15.894531 7.363281 C 16.074219 7.289062 16.257812 7.253906 16.453125 7.253906 C 16.644531 7.253906 16.832031 7.289062 17.007812 7.363281 C 17.1875 7.4375 17.34375 7.542969 17.480469 7.679688 L 23.289062 13.484375 C 23.421875 13.625 23.523438 13.785156 23.59375 13.964844 C 23.746094 14.332031 23.746094 14.699219 23.59375 15.066406 C 23.523438 15.246094 23.421875 15.40625 23.289062 15.546875 Z M 23.289062 15.546875 " fill-opacity="1" fill-rule="nonzero"/>

</svg>
