<svg width="32" height="32" viewBox="0 0 32 32" fill="none" xmlns="http://www.w3.org/2000/svg">
    <g opacity="0.6">
        <path d="M23.9987 24.6673C23.4683 24.6673 22.9596 24.4566 22.5845 24.0815C22.2094 23.7065 21.9987 23.1978 21.9987 22.6673C21.9987 22.1369 22.2094 21.6282 22.5845 21.2531C22.9596 20.878 23.4683 20.6673 23.9987 20.6673C24.5291 20.6673 25.0378 20.878 25.4129 21.2531C25.788 21.6282 25.9987 22.1369 25.9987 22.6673C25.9987 23.1978 25.788 23.7065 25.4129 24.0815C25.0378 24.4566 24.5291 24.6673 23.9987 24.6673ZM25.9987 12.6673L28.612 16.0007H22.6654V12.6673M7.9987 24.6673C7.46827 24.6673 6.95956 24.4566 6.58448 24.0815C6.20941 23.7065 5.9987 23.1978 5.9987 22.6673C5.9987 22.1369 6.20941 21.6282 6.58448 21.2531C6.95956 20.878 7.46827 20.6673 7.9987 20.6673C8.52913 20.6673 9.03784 20.878 9.41291 21.2531C9.78798 21.6282 9.9987 22.1369 9.9987 22.6673C9.9987 23.1978 9.78798 23.7065 9.41291 24.0815C9.03784 24.4566 8.52913 24.6673 7.9987 24.6673ZM26.6654 10.6673H22.6654V5.33398H3.9987C2.5187 5.33398 1.33203 6.52065 1.33203 8.00065V22.6673H3.9987C3.9987 23.7282 4.42013 24.7456 5.17027 25.4957C5.92042 26.2459 6.93783 26.6673 7.9987 26.6673C9.05956 26.6673 10.077 26.2459 10.8271 25.4957C11.5773 24.7456 11.9987 23.7282 11.9987 22.6673H19.9987C19.9987 23.7282 20.4201 24.7456 21.1703 25.4957C21.9204 26.2459 22.9378 26.6673 23.9987 26.6673C25.0596 26.6673 26.077 26.2459 26.8271 25.4957C27.5773 24.7456 27.9987 23.7282 27.9987 22.6673H30.6654V16.0007L26.6654 10.6673Z" fill="#060606"/>
    </g>
</svg>
