<svg width="32" height="32" viewBox="0 0 32 32" fill="none" xmlns="http://www.w3.org/2000/svg">
    <g clip-path="url(#clip0_1798_12625)">
        <path fill-rule="evenodd" clip-rule="evenodd" d="M15.3572 0.504701C7.7636 0.805501 1.4596 6.4887 0.454801 13.9479C-0.233199 19.0487 1.6708 24.1239 5.5684 27.5735C5.9524 27.9127 6.8196 28.5943 6.8708 28.5943C6.9828 28.5943 7.322 27.0967 7.434 26.0919C7.594 24.6711 7.5236 22.8695 7.2484 21.4391C7.1812 21.0871 7.162 21.0071 6.9476 20.1623C6.7236 19.2887 6.6628 18.8183 6.6852 18.1623C6.7076 17.4999 6.7684 17.2055 7.098 16.1175C7.354 15.2727 7.434 14.7575 7.4852 13.6183C7.594 11.2119 7.738 10.7575 8.6884 9.7879C9.5428 8.9207 9.6292 8.6935 9.4468 7.8647C9.2068 6.7831 9.3764 6.1111 10.0644 5.3975C10.746 4.6903 11.498 4.2999 12.1796 4.2935C13.2548 4.2839 13.4244 5.2887 12.5572 6.5463C11.818 7.6247 11.6836 7.8839 11.6612 8.3031C11.6388 8.7255 11.802 8.9751 12.4516 9.5127C13.4788 10.3639 13.7252 10.8151 14.6564 13.5351C15.002 14.5431 15.4628 14.9111 16.5956 15.0871C18.0196 15.3079 19.3124 15.0519 20.3716 14.3351C21.1908 13.7815 21.3668 13.2503 21.0212 12.3639C20.7684 11.7143 20.7972 11.3175 21.1492 10.6263C21.7284 9.4871 22.6436 8.7895 23.5524 8.7927C24.1988 8.7927 24.5668 9.1063 24.5636 9.6503C24.5604 9.9959 24.5316 10.0727 23.962 11.0903C23.2708 12.3287 23.1364 12.7191 23.2996 13.0007C23.5268 13.3879 24.4452 13.0711 25.5044 12.2423C26.41 11.5351 26.6564 11.2567 27.2068 10.3255C27.3828 10.0279 27.4468 9.9415 27.5812 9.8039C28.3076 9.0775 29.2164 9.6279 29.0308 10.6807C28.906 11.3911 28.5604 11.8711 26.8132 13.7559C25.2708 15.4199 24.7332 16.2135 24.698 16.8791C24.634 18.0375 25.002 20.0183 25.5876 21.6663C26.1636 23.2919 27.3188 25.4743 27.8532 25.9447L27.9492 26.0279L27.9908 25.9799C29.9332 23.6471 31.1012 21.0615 31.5108 18.1975C32.8132 9.0679 25.9012 0.879101 16.5796 0.507901C16.0388 0.482301 15.9268 0.482301 15.3572 0.504701ZM15.6836 17.1543C14.1796 17.3431 13.7636 18.5719 13.7668 22.8055C13.77 29.7847 13.9652 30.8599 15.3188 31.4007C15.8628 31.6183 17.8596 31.4807 19.4884 31.1159C20.042 30.9911 20.5796 30.6263 20.7492 30.2583C21.0404 29.6343 20.8516 27.1671 20.1764 22.7959C20.1188 22.4311 20.0132 21.7303 19.9396 21.2407C19.7732 20.1207 19.722 19.8743 19.5812 19.4455C19.162 18.1815 18.1476 17.4391 16.4996 17.1927C16.282 17.1607 15.8116 17.1383 15.6836 17.1543ZM10.1988 23.0071C9.6164 23.2663 9.3316 26.8215 9.7124 29.0807C9.7924 29.5607 9.9012 29.9479 10.0292 30.2295L10.0932 30.3671L10.2916 30.4439C10.4004 30.4855 10.602 30.5591 10.7364 30.6071L10.986 30.6967L11.0404 30.6327C11.322 30.3031 11.418 29.2439 11.322 27.6055C11.1492 24.6551 10.6948 22.7895 10.1988 23.0071ZM23.1012 23.3847C22.538 23.7943 22.586 26.7607 23.1876 28.5943C23.4564 29.4103 23.6452 29.5447 24.1188 29.2631C24.8964 28.7991 25.6196 28.2679 25.6804 28.1175C25.8628 27.6631 25.8148 27.2759 25.4692 26.3671C24.6884 24.3415 23.6292 23.0039 23.1012 23.3847Z" fill="#F34434"/>
    </g>
    <defs>
        <clipPath id="clip0_1798_12625">
            <rect width="32" height="32" fill="white"/>
        </clipPath>
    </defs>
</svg>
