<svg width="32" height="32" viewBox="0 0 32 32" fill="none" xmlns="http://www.w3.org/2000/svg">
    <g opacity="0.5">
        <path d="M5.03867 4.87268C4.79733 5.35268 4.67867 5.94735 4.44133 7.13402L3.644 11.1207C3.531 11.6642 3.53012 12.2252 3.64143 12.7691C3.75273 13.313 3.97387 13.8285 4.29132 14.284C4.60876 14.7394 5.01582 15.1253 5.48759 15.418C5.95935 15.7107 6.48589 15.9041 7.03496 15.9862C7.58404 16.0684 8.14411 16.0376 8.68087 15.8957C9.21764 15.7539 9.71981 15.504 10.1567 15.1614C10.5935 14.8187 10.9558 14.3905 11.2214 13.903C11.487 13.4155 11.6503 12.8789 11.7013 12.326L11.7947 11.406C11.7431 11.9916 11.8144 12.5816 12.0039 13.1381C12.1935 13.6946 12.4972 14.2054 12.8956 14.6377C13.2939 15.0701 13.7782 15.4145 14.3173 15.6489C14.8565 15.8833 15.4386 16.0026 16.0265 15.9991C16.6144 15.9955 17.1951 15.8693 17.7313 15.6284C18.2676 15.3875 18.7477 15.0372 19.1408 14.6001C19.5339 14.163 19.8314 13.6486 20.0143 13.0898C20.1971 12.5311 20.2613 11.9403 20.2027 11.3553L20.3013 12.326C20.3523 12.8789 20.5157 13.4155 20.7813 13.903C21.0469 14.3905 21.4092 14.8187 21.846 15.1614C22.2829 15.504 22.785 15.7539 23.3218 15.8957C23.8586 16.0376 24.4186 16.0684 24.9677 15.9862C25.5168 15.9041 26.0433 15.7107 26.5151 15.418C26.9868 15.1253 27.3939 14.7394 27.7113 14.284C28.0288 13.8285 28.2499 13.313 28.3612 12.7691C28.4725 12.2252 28.4717 11.6642 28.3587 11.1207L27.5613 7.13402C27.324 5.94735 27.2053 5.35402 26.964 4.87268C26.7125 4.3714 26.3585 3.9286 25.9248 3.57302C25.4911 3.21744 24.9875 2.95702 24.4467 2.80868C23.9267 2.66602 23.3213 2.66602 22.1107 2.66602H9.892C8.68133 2.66602 8.076 2.66602 7.556 2.80868C7.01516 2.95702 6.51155 3.21744 6.07787 3.57302C5.64419 3.9286 5.29013 4.3714 5.03867 4.87268ZM24.3587 17.9993C25.4009 18.0022 26.4261 17.7353 27.3347 17.2247V18.666C27.3347 23.694 27.3347 26.2087 25.772 27.77C24.5147 29.0287 22.6413 29.2727 19.3347 29.3207V24.666C19.3347 23.4193 19.3347 22.7967 19.0667 22.3327C18.8911 22.0287 18.6387 21.7762 18.3347 21.6007C17.8707 21.3327 17.248 21.3327 16.0013 21.3327C14.7547 21.3327 14.132 21.3327 13.668 21.6007C13.364 21.7762 13.1115 22.0287 12.936 22.3327C12.668 22.7967 12.668 23.4193 12.668 24.666V29.3207C9.36133 29.2727 7.488 29.0273 6.23067 27.77C4.668 26.2087 4.668 23.694 4.668 18.666V17.2247C5.57655 17.7353 6.60178 18.0022 7.644 17.9993C9.18488 18.0004 10.6684 17.415 11.7933 16.362C12.9398 17.4181 14.4426 18.0028 16.0013 17.9993C17.5596 18.0023 19.0618 17.4177 20.208 16.362C21.3339 17.416 22.8191 18.0015 24.3613 17.9993H24.3587Z" fill="#060606"/>
    </g>
</svg>
